<svg width="23" height="21" viewBox="0 0 23 21" fill="none" xmlns="http://www.w3.org/2000/svg">
<path d="M19.6445 5.26193H3.64453C2.53996 5.26193 1.64453 6.15736 1.64453 7.26193V17.2619C1.64453 18.3665 2.53996 19.2619 3.64453 19.2619H19.6445C20.7491 19.2619 21.6445 18.3665 21.6445 17.2619V7.26193C21.6445 6.15736 20.7491 5.26193 19.6445 5.26193Z" stroke="white" stroke-width="2" stroke-linecap="round" stroke-linejoin="round"/>
<path d="M15.6445 5.26193V1.70638C15.6445 1.5885 15.4338 1.47546 15.0587 1.39211C14.6837 1.30876 14.175 1.26193 13.6445 1.26193H9.64453C9.1141 1.26193 8.60539 1.30876 8.23032 1.39211C7.85525 1.47546 7.64453 1.5885 7.64453 1.70638V5.26193" stroke="white" stroke-width="2" stroke-linecap="round" stroke-linejoin="round"/>
</svg>
